<?xml version="1.0" standalone="no"?><svg preserveAspectRatio="none" xmlns="http://www.w3.org/2000/svg" viewBox="0 0 1440 320"><path fill="#008080" fill-opacity="1" d="M0,192L0,288L75.8,288L75.8,160L151.6,160L151.6,128L227.4,128L227.4,256L303.2,256L303.2,256L378.9,256L378.9,288L454.7,288L454.7,96L530.5,96L530.5,288L606.3,288L606.3,96L682.1,96L682.1,192L757.9,192L757.9,224L833.7,224L833.7,160L909.5,160L909.5,96L985.3,96L985.3,192L1061.1,192L1061.1,192L1136.8,192L1136.8,0L1212.6,0L1212.6,256L1288.4,256L1288.4,288L1364.2,288L1364.2,64L1440,64L1440,320L1364.2,320L1364.2,320L1288.4,320L1288.4,320L1212.6,320L1212.6,320L1136.8,320L1136.8,320L1061.1,320L1061.1,320L985.3,320L985.3,320L909.5,320L909.5,320L833.7,320L833.7,320L757.9,320L757.9,320L682.1,320L682.1,320L606.3,320L606.3,320L530.5,320L530.5,320L454.7,320L454.7,320L378.9,320L378.9,320L303.2,320L303.2,320L227.4,320L227.4,320L151.6,320L151.6,320L75.8,320L75.8,320L0,320L0,320Z"></path></svg>