<?xml version="1.0" standalone="no"?><svg preserveAspectRatio="none" xmlns="http://www.w3.org/2000/svg" viewBox="0 0 1440 320"><path fill="#008080" fill-opacity="1" d="M0,192L12.6,181.3C25.3,171,51,149,76,138.7C101.1,128,126,128,152,112C176.8,96,202,64,227,42.7C252.6,21,278,11,303,42.7C328.4,75,354,149,379,165.3C404.2,181,429,139,455,138.7C480,139,505,181,531,192C555.8,203,581,181,606,170.7C631.6,160,657,160,682,181.3C707.4,203,733,245,758,234.7C783.2,224,808,160,834,144C858.9,128,884,160,909,192C934.7,224,960,256,985,240C1010.5,224,1036,160,1061,128C1086.3,96,1112,96,1137,133.3C1162.1,171,1187,245,1213,282.7C1237.9,320,1263,320,1288,298.7C1313.7,277,1339,235,1364,218.7C1389.5,203,1415,213,1427,218.7L1440,224L1440,320L1427.4,320C1414.7,320,1389,320,1364,320C1338.9,320,1314,320,1288,320C1263.2,320,1238,320,1213,320C1187.4,320,1162,320,1137,320C1111.6,320,1086,320,1061,320C1035.8,320,1011,320,985,320C960,320,935,320,909,320C884.2,320,859,320,834,320C808.4,320,783,320,758,320C732.6,320,707,320,682,320C656.8,320,632,320,606,320C581.1,320,556,320,531,320C505.3,320,480,320,455,320C429.5,320,404,320,379,320C353.7,320,328,320,303,320C277.9,320,253,320,227,320C202.1,320,177,320,152,320C126.3,320,101,320,76,320C50.5,320,25,320,13,320L0,320Z"></path></svg>