<?xml version="1.0" standalone="no"?><svg preserveAspectRatio="none" xmlns="http://www.w3.org/2000/svg" viewBox="0 0 1440 320"><path fill="#008080" fill-opacity="1" d="M0,128L15,117.3C30,107,60,85,90,69.3C120,53,150,43,180,58.7C210,75,240,117,270,160C300,203,330,245,360,261.3C390,277,420,267,450,245.3C480,224,510,192,540,165.3C570,139,600,117,630,138.7C660,160,690,224,720,234.7C750,245,780,203,810,197.3C840,192,870,224,900,197.3C930,171,960,85,990,64C1020,43,1050,85,1080,133.3C1110,181,1140,235,1170,256C1200,277,1230,267,1260,261.3C1290,256,1320,256,1350,256C1380,256,1410,256,1425,256L1440,256L1440,320L1425,320C1410,320,1380,320,1350,320C1320,320,1290,320,1260,320C1230,320,1200,320,1170,320C1140,320,1110,320,1080,320C1050,320,1020,320,990,320C960,320,930,320,900,320C870,320,840,320,810,320C780,320,750,320,720,320C690,320,660,320,630,320C600,320,570,320,540,320C510,320,480,320,450,320C420,320,390,320,360,320C330,320,300,320,270,320C240,320,210,320,180,320C150,320,120,320,90,320C60,320,30,320,15,320L0,320Z"></path></svg>