<?xml version="1.0" standalone="no"?><svg preserveAspectRatio="none" xmlns="http://www.w3.org/2000/svg" viewBox="0 0 1440 320"><path fill="#008080" fill-opacity="1" d="M0,192L12.6,208C25.3,224,51,256,76,250.7C101.1,245,126,203,152,176C176.8,149,202,139,227,154.7C252.6,171,278,213,303,234.7C328.4,256,354,256,379,261.3C404.2,267,429,277,455,250.7C480,224,505,160,531,160C555.8,160,581,224,606,224C631.6,224,657,160,682,144C707.4,128,733,160,758,181.3C783.2,203,808,213,834,208C858.9,203,884,181,909,160C934.7,139,960,117,985,122.7C1010.5,128,1036,160,1061,176C1086.3,192,1112,192,1137,160C1162.1,128,1187,64,1213,74.7C1237.9,85,1263,171,1288,218.7C1313.7,267,1339,277,1364,245.3C1389.5,213,1415,139,1427,101.3L1440,64L1440,320L1427.4,320C1414.7,320,1389,320,1364,320C1338.9,320,1314,320,1288,320C1263.2,320,1238,320,1213,320C1187.4,320,1162,320,1137,320C1111.6,320,1086,320,1061,320C1035.8,320,1011,320,985,320C960,320,935,320,909,320C884.2,320,859,320,834,320C808.4,320,783,320,758,320C732.6,320,707,320,682,320C656.8,320,632,320,606,320C581.1,320,556,320,531,320C505.3,320,480,320,455,320C429.5,320,404,320,379,320C353.7,320,328,320,303,320C277.9,320,253,320,227,320C202.1,320,177,320,152,320C126.3,320,101,320,76,320C50.5,320,25,320,13,320L0,320Z"></path></svg>